<?xml version="1.0" encoding="UTF-8" standalone="no"?>
<!DOCTYPE svg PUBLIC "-//W3C//DTD SVG 1.1//EN" "http://www.w3.org/Graphics/SVG/1.1/DTD/svg11.dtd">
<svg width="100%" height="100%" viewBox="0 0 1723 1011" version="1.1" xmlns="http://www.w3.org/2000/svg" xmlns:xlink="http://www.w3.org/1999/xlink" xml:space="preserve" xmlns:serif="http://www.serif.com/" style="fill-rule:evenodd;clip-rule:evenodd;stroke-linejoin:round;stroke-miterlimit:2;">
    <g transform="matrix(3.125,0,0,3.125,0,0)">
        <g id="Layer-1" serif:id="Layer 1" transform="matrix(1,0,0,1,-1,-1)">
            <g transform="matrix(1,0,0,1,1,1.4309)">
                <path d="M493.388,121.88C492.596,121.168 491.693,120.579 490.716,120.09L489.714,119.589L487.901,117.398L487.901,112.752L508.242,114.1L510.055,116.29L532.719,156.553L532.719,130.702C532.719,128.653 532.403,126.509 531.394,124.698C530.345,123.799 529.091,123.118 527.836,122.593L526.723,122.127L524.91,119.936L524.91,115.204L549.247,116.816L551.061,119.007L551.061,123.554L549.877,123.992C545.6,125.576 544.044,128.855 544.044,133.283L544.044,202.027L536.724,201.542L534.911,199.351L506.243,149.049L506.243,184.088C506.243,186.065 506.403,188.671 507.24,190.556C508.147,191.236 509.221,191.746 510.181,192.122L511.333,192.572L513.147,194.763L513.147,199.527C492.255,197.784 478.78,197.788 459.622,198.419L457.809,196.228L457.809,191.566L459.104,191.18C461.558,190.447 462.573,188.933 462.573,186.392C462.573,185.275 462.355,184.002 462.155,182.902C461.505,180.02 459.882,177.238 458.157,174.874C457.96,174.603 457.759,174.335 457.555,174.07C456.042,172.373 454.379,170.815 452.563,169.424C451.069,168.278 449.143,167.001 447.206,166.374L442.1,185.718C441.869,186.643 441.587,187.847 441.587,188.804C441.587,189.323 441.64,189.842 441.785,190.328C442.518,190.794 443.36,191.147 444.113,191.408L445.331,191.832L447.144,194.022L447.144,198.577C428.912,198.808 413.385,199.541 395.02,200.711L395.02,198.405L393.206,198.52L393.206,193.839L394.26,193.353C398.623,191.34 400.338,187.802 400.338,183.09L400.338,149.543L387.586,183.037L384.042,183.263L382.229,181.072L365.933,145.327L365.933,187.82C365.933,189.508 366.133,191.483 366.933,193.06C367.949,193.893 369.149,194.471 370.431,194.871L371.704,195.268L373.517,197.459L373.517,202.082L349.742,204.134L348.775,201.353L348.775,204.347L300.357,211.335L300.357,208.883L298.543,209.144L298.543,204.403L299.466,203.883C303.765,201.458 305.84,197.888 305.84,192.954L305.84,139.644C305.84,138.304 305.703,137 305.332,135.82C305.21,136.269 305.078,136.715 304.943,137.161C302.815,144.154 299.18,150.638 295.672,157.014C292.339,163.07 289.115,169.086 286.229,175.375C282.264,184.013 278.978,192.898 276.212,201.989C273.46,211.033 271.217,220.259 269.332,229.509L269.583,229.472C269.774,229.444 269.965,229.416 270.156,229.386C276.983,228.347 283.959,226.865 290.59,225.153C291.633,224.847 292.674,224.536 293.712,224.215C294.155,224.042 294.809,223.757 295.121,223.409C295.535,222.946 295.727,221.618 295.839,221.03C296.109,219.602 296.408,218.229 296.83,216.835C297.033,216.162 297.383,215.551 297.852,215.028C298.724,214.054 299.985,213.424 301.254,213.159C305.328,212.311 309.626,211.752 313.751,211.189C319.781,210.364 325.825,209.622 331.871,208.914C338.135,208.181 344.406,207.487 350.681,206.857C354.807,206.443 359.043,205.986 363.183,205.787C365.062,205.696 366.823,206.824 367.437,208.583C368.382,209.142 369.105,210.053 369.371,211.183C370.306,215.168 369.771,222.375 368.8,226.378C368.571,227.325 368.162,228.225 367.508,228.956C366.706,229.85 365.649,230.372 364.463,230.54C361.036,231.026 357.551,231.363 354.106,231.704C349.35,232.173 344.589,232.606 339.83,233.042C333.416,233.629 326.996,234.177 320.592,234.863C314.314,235.534 308.041,236.262 301.777,237.054C296.82,237.681 291.887,238.449 286.946,239.188C280.296,240.182 273.647,241.154 266.985,242.061C266.907,242.52 266.829,242.979 266.752,243.439C266.689,243.818 266.601,244.192 266.489,244.56C265.899,246.501 264.636,248.181 262.949,249.308C261.389,250.35 259.499,250.905 257.62,250.73C255.184,250.502 253.416,249.153 252.404,247.234C250.841,246.023 249.903,244.1 249.664,241.912C249.606,241.375 249.553,240.836 249.505,240.297C248.254,240.272 247.035,240.642 245.67,241.16C243.193,242.101 240.951,244.294 239.215,246.232C238.939,246.539 238.668,246.85 238.397,247.161C238.221,247.364 238.045,247.567 237.866,247.767C236.513,249.277 234.019,249.705 232.664,248.161L230.776,246.008C229.031,244.019 229.506,241.563 231.029,239.767C231.337,239.404 231.649,239.043 231.967,238.688C234.629,235.718 237.389,233.569 241.158,232.133C243.715,231.159 246.453,230.635 249.186,230.378C249.239,227.358 249.417,224.338 249.693,221.329L222.384,227.574L220.571,225.383L220.571,220.471L221.48,219.948C226.112,217.285 229.416,213.582 229.416,208.041L229.416,151.244C227.134,151.911 225.196,153.117 223.68,155.017C221.358,157.931 219.548,162.383 218.269,165.854L217.93,166.776L213.317,167.831L211.504,165.64L211.504,152.134C207.687,155.23 205.772,159.171 205.772,164.134L205.772,232.257L199.03,234.454L197.216,232.264L169.753,192.55L169.753,229.183C169.753,230.495 169.823,232.558 170.271,234.124C171.078,234.414 172.037,234.48 172.732,234.49L174.518,234.517L176.331,236.708L176.331,241.398L153.509,248.836L152.896,247.425L152.896,249.21L107.32,267.661L105.507,265.47L105.507,260.355L106.143,259.812C110.116,256.423 112.341,252.245 112.341,246.97L112.341,193.66C112.341,192.152 112.202,190.739 111.753,189.59C111.071,189.206 110.207,188.986 109.115,188.975L107.32,188.957L107.32,186.784L107.302,186.784L105.507,186.766L105.507,182.161L149.085,164.519L150.898,166.71L150.898,185.594L147.016,187.166L146.237,185.762C146.065,185.451 145.876,185.121 145.671,184.785L145.202,184.975L144.424,183.571C144.109,183.003 143.737,182.374 143.317,181.753C143.004,181.46 142.678,181.202 142.341,180.991C141.181,180.266 139.962,180.38 138.726,180.88L130.502,184.21L130.502,203.733C133.849,201.899 135.946,198.05 137.277,194.638L137.561,193.91L142.461,191.926L144.275,194.117L144.275,217.425L139.939,219.181L139.175,217.728C138.996,217.389 138.812,217.076 138.623,216.788L138.125,216.99L137.361,215.537C137.307,215.434 137.252,215.334 137.197,215.235C136.032,214.401 134.608,214.307 132.734,215.066L130.502,215.969L130.502,245.994L137.339,243.226C139.31,242.428 140.809,241.013 141.975,239.254C143.777,236.533 145.135,232.958 146.187,229.884L146.455,229.101L151.083,227.227L152.896,229.418L152.896,240.738C156.685,237.697 158.597,233.799 158.597,228.854L158.597,175.545C158.597,174.205 158.479,172.439 157.917,171.044C157.178,170.587 156.321,170.34 155.412,170.222L153.832,170.017L152.019,167.826L152.019,163.329L171.173,157.086L172.986,159.277L194.724,191.212L194.724,163.771C194.724,162.463 194.602,160.841 194.077,159.502C193.104,158.966 191.897,158.789 190.831,158.742L189.096,158.666L187.283,156.475L187.283,151.836L210.645,144.222L211.504,146.724L211.504,144.339L264.334,132.258L264.334,134.864L266.148,134.449L266.148,155.75L261.844,156.734L261.239,155.368C261.1,155.054 260.949,154.72 260.786,154.371L260.031,154.543L259.426,153.177C258.731,151.61 257.732,149.531 256.539,147.774C256.373,147.618 256.205,147.474 256.035,147.342C254.298,145.992 252.085,146.035 250.033,146.505L248.235,146.916L248.235,207.173C248.235,208.696 248.475,209.972 248.97,211.021C249.506,211.41 250.129,211.731 250.844,211.986C252.595,200.477 255.479,189.034 258.861,177.918C263.418,162.94 269.039,148.125 275.255,133.756C276.047,131.926 276.851,130.101 277.666,128.28L279.343,124.581C280.379,122.323 281.434,120.074 282.514,117.837C282.987,116.858 283.46,115.852 283.963,114.888L284.034,114.759L284.067,114.709C286.844,110.467 291.713,108.713 296.424,110.795C300.027,112.387 303.907,117.334 305.234,121.001C305.701,122.289 306.014,123.624 306.197,124.978L344.829,119.403L346.642,121.594L346.642,140.23L342.466,140.832L341.872,139.69C341.681,139.321 341.476,138.94 341.258,138.554L340.653,138.641L340.059,137.499C339.521,136.463 338.876,135.326 338.137,134.262C337.931,134.061 337.72,133.87 337.505,133.693C336.258,132.671 334.897,132.284 333.301,132.514L324.863,133.732L324.863,154.037C328.641,153.345 330.975,150.046 332.5,146.742L332.913,145.849L337.756,145.15L339.57,147.341L339.57,170.4L334.919,171.071L333.106,168.88L332.522,167.704C332.318,167.292 332.102,166.898 331.874,166.526C330.588,165.432 328.981,164.897 326.901,165.197L324.863,165.491L324.863,196.237L332.878,195.08C334.802,194.803 336.335,193.901 337.591,192.42C339.462,190.214 340.94,186.91 342.005,184.244L342.393,183.271L346.962,182.612L348.775,184.803L348.775,196.289L348.889,196.238C350.912,195.334 352.677,194.035 353.865,192.139C355.043,190.26 355.513,188.151 355.513,185.947L355.513,132.638C355.513,130.715 355.268,128.599 354.406,126.841C353.628,126.259 352.719,125.839 351.777,125.527L350.534,125.116L350.534,123.54C350.346,123.468 350.156,123.4 349.964,123.336L348.721,122.925L348.721,118.326L373.646,116.737L375.46,118.928L388.84,149.515L401.886,114.936L423.321,113.57L425.134,115.76L425.134,120.477L424.034,120.948C422.365,121.663 420.651,122.732 419.769,124.379C418.782,126.221 418.569,128.764 418.569,130.815L418.569,184.465C418.569,186.605 418.938,188.477 419.801,190.027C420.546,190.651 421.445,191.18 422.515,191.603L423.661,192.057L423.661,192.483L424.598,192.117C428.23,190.699 430.041,186.264 430.994,182.796L450.41,112.164L461.814,112.019L463.627,114.21L481.677,183.643C482.183,185.588 482.912,187.547 484.022,189.241C484.796,189.978 485.674,190.596 486.673,191.041L487.561,191.438L487.561,191.178L488.79,190.759C493.182,189.262 494.805,186.01 494.805,181.5L494.805,128.191C494.805,126.064 494.494,123.741 493.388,121.88ZM238.577,110.718L238.577,95.858L243.126,94.613L244.939,96.804L245.327,98.701C245.725,100.65 246.381,102.541 247.437,104.191L247.57,104.314C249.434,105.998 251.515,106.6 253.981,106.104C255.733,105.753 257.256,104.552 258.458,103.286C260.182,101.468 260.605,98.758 260.605,96.349C260.605,93.36 259.503,90.611 257.875,88.145C257.403,87.429 256.9,86.729 256.374,86.045C254.93,84.414 253.367,82.882 251.767,81.449C249.49,79.408 246.904,76.876 244.722,74.045C241.107,69.951 238,65.027 238,59.975C238,54.59 239.46,49.559 243.205,45.572C246.753,41.794 251.224,39.546 256.29,38.529C258.921,38 261.633,37.695 264.319,37.803C266.292,37.882 268.624,38.185 270.321,39.27L271.158,39.805L272.972,41.995L272.972,56.543L269.275,57.285L267.462,55.094L266.811,53.964C266.104,52.736 265.288,51.415 264.378,50.174C264.052,49.832 263.718,49.509 263.376,49.211C262.064,48.065 260.64,47.54 258.914,47.887C257.594,48.152 256.621,48.935 255.846,50.016C254.882,51.362 254.502,52.903 254.502,54.548C254.502,57.1 255.267,59.393 256.726,61.486L256.881,61.704C258.429,63.36 260.223,64.852 261.971,66.167C265.093,68.518 267.986,71.204 270.295,74.247C273.863,78.219 276.478,82.866 277.197,88.252L281.015,87.425L282.828,89.616L283.195,91.415C283.622,93.509 284.338,95.523 285.486,97.282L285.515,97.31C287.381,99.083 289.506,99.861 292.066,99.49C293.803,99.239 295.317,98.152 296.536,96.945C298.271,95.229 298.669,92.525 298.669,90.194C298.669,87.159 297.52,84.328 295.898,81.806C295.268,80.826 294.587,79.872 293.865,78.944C292.542,77.436 291.131,76.004 289.691,74.647C287.606,72.683 285.217,70.257 283.119,67.564C279.297,63.199 275.85,57.874 275.85,52.583C275.85,47.24 277.301,42.235 281.139,38.397C284.776,34.758 289.331,32.774 294.396,32.041C297.068,31.655 299.805,31.502 302.497,31.755C304.492,31.942 306.82,32.373 308.502,33.528L309.288,34.068L311.101,36.259L311.101,50.852L307.347,51.395L305.533,49.204L304.923,48.122C304.133,46.72 303.219,45.214 302.193,43.817C301.936,43.547 301.675,43.289 301.408,43.043C300.096,41.837 298.618,41.178 296.827,41.438C295.531,41.625 294.571,42.32 293.792,43.356C292.82,44.648 292.457,46.16 292.457,47.761C292.457,50.362 293.261,52.708 294.718,54.858C294.859,55.066 295.004,55.272 295.154,55.476C296.665,57.117 298.383,58.618 300.062,59.961C302.988,62.302 305.753,64.953 308.023,67.917C312.436,72.869 315.568,78.795 315.568,85.723C315.568,89.792 314.578,93.628 312.432,97.099C310.412,100.366 307.779,103.062 304.51,105.078C301.4,106.997 298.017,108.279 294.399,108.803C291.566,109.213 288.688,109.348 285.833,109.113C283.621,108.93 281.099,108.501 279.153,107.379L278.246,106.856L276.432,104.665L276.432,97.939C275.927,99.604 275.221,101.213 274.306,102.758C272.319,106.11 269.725,108.937 266.5,111.123C263.456,113.185 260.118,114.658 256.509,115.383C253.718,115.944 250.867,116.239 248.019,116.158C245.883,116.097 243.42,115.817 241.481,114.836L241.481,117.212L215.713,123.362L213.9,121.171L213.9,116.51L214.861,115.998C216.897,114.914 217.908,113.368 217.908,111.049C217.908,110.126 217.731,109.082 217.563,108.172C217.173,106.487 216.339,104.918 215.323,103.507C213.797,101.877 212.06,100.485 210.1,99.382C208.863,98.687 207.361,98.016 205.876,97.845L201.543,115.7C201.353,116.523 201.112,117.603 201.112,118.449C201.112,118.552 201.114,118.661 201.12,118.774C201.562,118.905 202.019,118.985 202.397,119.035L203.974,119.243L205.788,121.433L205.788,125.731L187.703,130.048L187.703,130.583L147.777,143.553L146.461,141.399C144.625,143.295 142.644,145.117 140.496,146.656C138.214,148.292 135.548,149.573 132.957,150.636C128.357,152.524 123.398,153.268 118.646,151.467C115.312,150.204 112.736,148.017 110.764,145.252C109.221,143.652 107.964,141.754 106.948,139.66C104.392,134.393 103.589,128.31 103.589,122.511C103.589,115.334 104.557,108.203 106.812,101.377C108.805,95.347 111.679,89.624 115.766,84.735C119.372,80.42 123.723,76.926 128.951,74.781C131.3,73.817 133.744,73.117 136.254,72.72C137.162,72.577 138.172,72.371 139.026,72.021C139.163,71.964 139.487,71.82 139.57,71.737C139.617,71.666 139.625,71.5 139.625,71.421L139.625,69.8L141.236,69.619C141.78,69.558 142.327,69.614 142.841,69.806C143.929,70.211 144.63,71.102 145.08,72.191C145.416,72.372 145.708,72.606 145.963,72.879L145.963,68.867L172.359,60.293L174.172,62.483L174.172,67.277L173.425,67.819C171.888,68.937 170.438,70.363 169.692,72.142C168.919,73.988 168.667,76.063 168.667,78.051L168.667,125.464L173.251,123.974C174.98,123.412 176.204,122.032 177.101,120.506C178.825,117.572 180.124,113.589 181.132,110.348L181.41,109.452L185.89,107.996L187.703,110.187L187.703,121.738C189.591,119.586 190.682,116.516 191.337,113.919L207.638,49.275L217.676,46.878L219.489,49.069L234.838,106.302C235.126,107.416 235.53,108.555 236.112,109.576C236.737,110.083 237.446,110.455 238.265,110.646L238.577,110.718ZM147.221,135.61C150.313,133.006 152.029,129.763 152.029,125.613L152.029,79.498C152.029,78.269 151.889,77.179 151.538,76.266C150.946,75.917 150.219,75.672 149.331,75.544L147.777,75.32L146.205,73.164C147.6,74.97 147.698,78.111 147.698,80.087C147.698,83.01 146.896,85.929 145.792,88.616C144.267,92.326 142.436,95.983 140.598,99.546C138.819,102.993 137.035,106.562 135.585,110.161C135.438,110.525 135.297,110.896 135.165,111.27C135.702,111.35 136.227,111.538 136.725,111.849C137.558,112.368 138.113,113.098 138.398,113.956C138.445,113.983 138.492,114.011 138.539,114.04C139.811,114.834 140.436,116.117 140.436,117.604C140.436,119.372 140.042,121.094 139.025,122.565C138.091,123.916 136.837,124.908 135.318,125.531C132.908,126.52 130.629,125.991 129.26,123.699C129.149,123.513 129.045,123.324 128.949,123.131C128.377,122.753 127.868,122.214 127.447,121.508C126.286,119.564 125.919,117.249 125.919,115.016C125.919,114.288 125.954,113.55 126.041,112.819C125.972,112.651 125.913,112.479 125.865,112.302C125.718,112.234 125.574,112.159 125.434,112.074C124.105,111.272 123.831,109.644 123.831,108.22C123.831,106.483 124.732,104.546 125.553,103.052C126.954,100.504 128.538,98.004 130.11,95.558C131.685,93.108 133.281,90.594 134.671,88.034C135.168,87.119 135.995,85.459 135.995,84.39C135.995,84.207 135.988,84.017 135.968,83.826C135.622,83.714 135.256,83.656 134.871,83.639C133.944,83.601 133.003,83.702 132.14,84.056C129.745,85.039 128.008,87.505 126.834,89.707C124.848,93.434 123.643,97.777 122.839,101.904C121.796,107.25 121.374,112.722 121.374,118.164C121.374,123.373 121.729,128.917 123.041,133.975C123.569,136.013 124.384,138.54 125.626,140.547C126.867,141.618 128.161,142.021 129.767,141.362C132.634,140.185 134.799,138.047 136.469,135.477C138.622,132.163 140.102,128.404 141.142,124.605L141.378,123.744L146.038,121.833L147.851,124.024L147.221,135.61ZM155.125,6.983L176.701,-0.431L178.514,1.76L178.514,12.006L175.306,13.11L174.554,11.83C174.374,11.523 174.13,11.139 173.853,10.795L173.492,10.919L172.956,10.005C172.708,9.909 172.453,9.961 172.19,10.051L169.091,11.116L169.091,13.939C169.197,13.726 169.294,13.513 169.383,13.305L169.699,12.564L173.641,11.21L173.641,14.023L175.454,13.401L175.454,25.541L172.018,26.722L171.28,25.397C170.986,24.87 170.712,24.57 170.328,24.489L170.205,24.531L170.17,24.468C169.959,24.457 169.715,24.502 169.421,24.603L169.091,24.716L169.091,33.853L170.024,33.533C170.716,33.295 171.245,32.854 171.675,32.265C172.436,31.226 173.032,29.776 173.48,28.576L173.78,27.774L177.624,26.453L179.437,28.644L179.437,39.278L128.792,56.681L126.979,54.49L126.979,50.363L127.705,49.819C128.314,49.362 128.933,48.763 129.224,48.043C129.55,47.235 129.65,46.311 129.65,45.446L129.65,29.914L127.096,30.792L125.282,28.602L124.584,27.148C124.502,26.978 124.398,26.77 124.279,26.546C123.813,26.426 123.183,26.599 122.792,26.733L122.608,26.797L122.608,51.491C122.687,51.493 122.77,51.493 122.855,51.493L124.68,51.482L126.493,53.673L126.493,57.471L109.218,63.407L107.404,61.216L107.404,57.037L108.197,56.497C109.85,55.371 111.29,53.866 111.29,51.755L111.29,31.975C110.496,33.223 109.859,34.85 109.385,36.163L109.09,36.979L105.235,38.304L103.422,36.113L103.422,24.75L155.125,6.983ZM155.442,40.245C156.91,39.095 157.774,37.686 157.774,35.782L157.774,13.152L157.388,13.442C156.778,13.899 156.16,14.498 155.869,15.218C155.542,16.026 155.442,16.95 155.442,17.815L155.442,40.245ZM140.919,45.675L141.453,45.723L141.453,45.389L142.179,44.845C142.803,44.377 143.425,43.771 143.732,43.039C144.068,42.236 144.173,41.32 144.173,40.456L144.173,33.133L140.919,34.251L140.919,45.675ZM140.919,25.611L144.173,24.492L144.173,17.611L143.639,17.581L143.639,17.885L142.896,18.429C142.274,18.883 141.687,19.458 141.371,20.172C141.017,20.974 140.919,21.937 140.919,22.805L140.919,25.611ZM314.951,97.429C318.573,95.448 320.345,92.525 320.345,88.39L320.345,42.276C320.345,40.712 320.099,39.36 319.549,38.23C318.876,37.726 318.059,37.316 317.082,37.004L315.821,36.601L314.008,34.41L314.008,30.094L342.105,26.901L343.918,29.092L343.918,33.572L342.975,34.088C339.353,36.069 337.581,38.993 337.581,43.127L337.581,89.241C337.581,90.805 337.827,92.157 338.377,93.286C339.05,93.791 339.867,94.201 340.844,94.513L342.105,94.917L343.918,97.108L343.918,101.424L315.821,104.616L314.008,102.425L314.008,97.945L314.951,97.429ZM387.283,76.078L389.096,78.269L388.136,94.375L387.378,94.875C385.334,96.223 383.145,97.424 380.843,98.268C378.283,99.206 375.348,99.619 372.642,99.841C367.223,100.286 362.088,99.16 357.521,96.189C354.84,94.445 352.603,92.281 350.752,89.799C348.57,87.425 346.828,84.671 345.461,81.65C342.883,75.949 341.878,69.75 341.878,63.523C341.878,56.651 342.826,49.707 345.38,43.295C347.53,37.897 350.667,32.975 355.211,29.285C359.421,25.868 364.248,23.908 369.652,23.464C372.781,23.207 375.973,23.192 379.089,23.614C381.33,23.918 384.009,24.522 385.805,25.977L386.441,26.492L388.255,28.683L388.944,45.097L384.732,45.767L382.919,43.576L380.865,39.211C380.407,38.216 379.876,37.276 379.266,36.397C378.8,35.923 378.302,35.475 377.771,35.054C376.01,33.655 374.033,32.811 371.762,32.998C369.414,33.191 367.689,34.847 366.405,36.698C364.267,39.784 363.001,43.79 362.186,47.421C361.035,52.557 360.617,57.894 360.617,63.149C360.617,68.595 361.055,74.232 362.417,79.518C363.174,82.453 364.306,85.767 366.071,88.385C367.284,89.562 368.769,90.452 370.532,90.307C373.329,90.077 375.583,88.86 377.439,86.763C379.746,84.156 381.288,80.891 382.352,77.602L382.723,76.452L387.283,76.078ZM44.895,198.437C44.31,196.758 44.009,195.008 44.009,193.201C44.009,189.744 44.965,186.551 46.897,183.684C48.79,180.875 51.394,179.04 54.732,178.347C61.718,176.898 66.572,181.695 67.071,187.846L67.181,189.202L65.961,189.665C65.676,189.821 65.157,190.398 64.941,190.641C64.25,191.418 63.735,192.448 63.347,193.404C62.83,194.679 62.64,196.064 62.64,197.433C62.64,199.525 63.064,201.462 64.081,203.173C66.344,204.989 69.95,204.724 72.6,204.242C77.337,203.382 81.283,201.224 84.27,197.429C87.153,193.766 88.618,189.642 88.618,184.979C88.618,181.328 87.751,177.913 85.785,174.828C85.711,174.713 85.635,174.598 85.559,174.485C83.811,172.748 81.673,171.494 79.268,170.61C74.932,169.017 70.069,169.177 65.588,169.991C57.967,171.375 51.425,175.31 45.815,180.544C38.84,187.054 34.052,195.616 30.684,204.46C26.366,215.799 24.867,228.193 24.867,240.267C24.867,255.486 26.339,275.453 34.324,288.839C34.959,289.903 35.624,290.897 36.318,291.823C42.171,298.203 49.857,300.348 59.409,298.614C64.383,297.71 68.968,295.813 72.934,292.658C76.413,289.891 78.305,286.416 78.305,281.946C78.305,280.403 78.217,278.293 77.67,276.768C77.539,276.697 77.402,276.63 77.259,276.569L75.785,275.935L76.133,274.742C75.922,274.605 75.694,274.484 75.446,274.378L73.972,273.745L74.421,272.204C74.825,270.817 75.556,269.604 76.641,268.648C77.615,267.788 78.748,267.161 80.034,266.927C81.25,266.706 82.508,266.636 83.701,266.847L83.701,253.385C83.701,251.217 82.929,248.913 82.059,246.953C81.681,246.103 81.241,245.304 80.737,244.557C80.252,244.075 79.728,243.624 79.166,243.202C77.125,241.673 74.785,241.35 72.303,241.8C69.341,242.338 66.822,243.691 64.677,245.803C62.5,247.947 60.721,250.406 59.489,253.209C59.068,254.167 58.66,255.213 58.343,256.288C59.831,256.198 61.24,256.607 62.416,257.621C63.054,258.17 63.532,258.811 63.861,259.519C63.986,259.61 64.109,259.707 64.229,259.811C65.606,260.998 66.238,262.607 66.238,264.412C66.238,266.366 65.397,268.044 64.03,269.415C62.696,270.752 61.094,271.657 59.232,271.995C56.514,272.489 53.968,271.931 52.059,269.864C51.631,269.4 51.27,268.895 50.968,268.359C50.718,268.152 50.477,267.924 50.246,267.673C48.266,265.529 47.727,262.502 47.727,259.678C47.727,259.199 47.743,258.72 47.775,258.243C47.085,258.021 46.431,257.666 45.828,257.172C45.145,256.614 44.648,255.944 44.304,255.204C44.206,255.133 44.11,255.059 44.015,254.981C42.44,253.693 41.851,251.819 41.851,249.833C41.851,243.704 45.989,239.694 51.19,237.103C57.189,234.115 63.616,232.136 70.201,230.939C73.827,230.281 77.625,229.94 81.297,229.653L81.358,229.649C85.132,229.482 88.907,229.101 92.626,228.426C94.441,228.096 96.531,227.61 98.187,226.773C99.393,226.162 100.569,225.432 101.589,224.541L102.745,223.531L106.14,226.31L107.953,228.501L107.292,229.802C106.122,232.103 105.321,234.621 104.745,237.131C103.935,240.661 103.772,244.631 103.772,248.242L103.772,283.258C103.772,287.783 104.598,292.391 105.75,296.755C106.709,300.388 108.218,303.768 110.419,306.748L110.466,306.798C113.54,310.101 117.409,310.864 121.765,310.073C122.767,309.891 124.609,309.541 125.494,309.026L125.539,309.001C125.592,308.972 125.663,308.932 125.744,308.886C124.733,307.828 124.233,306.459 124.233,304.903C124.233,303.105 124.83,301.477 125.94,300.065C127.051,298.65 128.503,297.697 130.279,297.374C132.077,297.048 133.806,297.397 135.255,298.524C136.005,299.108 136.559,299.811 136.924,300.606C136.972,300.642 137.021,300.678 137.068,300.715C138.548,301.867 139.267,303.485 139.267,305.351C139.267,308.874 137.301,311.772 134.772,314.059C131.783,316.764 128.178,318.353 124.227,319.07C121.85,319.502 119.442,319.595 117.063,319.237C115.526,321.181 113.304,322.253 110.796,322.708C107.515,323.304 103.831,322.187 100.832,320.919C97.167,319.369 94.222,316.628 91.852,313.481C90.573,312.081 89.436,310.544 88.423,308.955C86.359,305.718 85.155,301.962 84.499,298.106C82.421,300.155 80.065,301.923 77.531,303.448C72.719,306.344 67.52,308.383 61.99,309.387C51.859,311.227 41.928,310.372 32.458,306.222C25.622,303.226 20.119,298.596 15.689,292.93C12.874,289.719 10.452,286.111 8.37,282.233C1.886,270.156 0,255.618 0,242.085C0,227.918 2.708,214.111 9.257,201.473C15.068,190.258 22.822,180.41 32.987,172.835C41.988,166.129 52.032,161.21 63.126,159.195C69.464,158.044 76.173,157.894 82.33,160.022C87.113,161.674 91.04,164.455 93.955,168.447C95.05,169.616 96.038,170.915 96.911,172.35C100.118,177.615 101.253,183.722 101.253,189.821C101.253,195.194 99.549,200.378 97.091,205.106C94.271,210.533 90.381,215.173 85.662,219.055C80.867,223 75.416,225.646 69.305,226.756C64.718,227.589 59.901,227.725 55.394,226.385C51.509,225.232 48.15,223.159 45.704,219.888C45.587,219.732 45.473,219.575 45.363,219.416C44.842,218.884 44.35,218.312 43.891,217.697C41.471,214.461 40.412,210.71 40.412,206.685C40.412,204.805 40.859,203.02 41.788,201.385C42.534,200.072 43.619,199.115 44.895,198.437ZM208.12,88.553C209.264,88.895 210.386,89.314 211.483,89.799C212.099,90.071 212.708,90.368 213.304,90.693L210.424,79.057L208.12,88.553ZM449.653,157.051C451.403,157.874 453.091,158.829 454.713,159.883C455.518,160.406 456.314,160.962 457.086,161.552L452.971,144.479L449.653,157.051Z" style="fill:rgb(204,149,98);"/>
            </g>
            <g transform="matrix(1,0,0,1,1,108.504)">
                <path d="M107.32,155.707L107.32,154.119C111.876,150.233 114.154,145.492 114.154,139.897L114.154,86.587C114.154,80.84 111.876,77.944 107.32,77.898L107.32,76.31L147.271,60.136L147.271,75.108L146.01,75.619C144.538,72.963 143.031,71.153 141.489,70.19C139.947,69.226 138.195,69.141 136.232,69.936L126.876,73.724L126.876,100.152L130.24,98.79C133.884,97.314 136.793,93.793 138.966,88.225L140.648,87.544L140.648,106.939L138.966,107.62C136.933,103.755 134.025,102.588 130.24,104.121L126.876,105.483L126.876,142.346L138.02,137.834C140.193,136.954 142.015,135.404 143.487,133.182C144.959,130.96 146.431,127.699 147.903,123.398L149.269,122.845L149.269,138.724L107.32,155.707ZM295.691,5.381C298.378,6.569 300.518,9.046 301.716,12.354C302.561,14.69 302.901,17.357 302.734,20.237L343.015,14.423L343.015,29.395L341.668,29.59C340.096,26.565 338.488,24.377 336.841,23.027C335.194,21.677 333.324,21.153 331.228,21.455L321.237,22.898L321.237,49.325L324.829,48.807C328.721,48.245 331.827,45.453 334.147,40.43L335.943,40.17L335.943,59.566L334.147,59.825C331.976,55.45 328.871,53.554 324.829,54.138L321.237,54.656L321.237,91.519L333.137,89.802C335.456,89.467 337.402,88.373 338.974,86.521C340.546,84.668 342.117,81.776 343.689,77.843L345.148,77.633L345.148,93.513L300.357,99.977L300.357,98.39C305.221,95.646 307.653,91.476 307.653,85.881L307.653,32.571C307.653,27.717 305.918,24.489 302.447,22.887C302.293,23.862 302.087,24.856 301.826,25.865C301.692,26.363 301.546,26.87 301.395,27.369C299.403,33.913 296.097,39.92 292.27,46.876C286.474,57.407 279.261,70.514 272.663,92.198C269.738,101.812 267.141,112.496 264.915,124.061L264.913,124.073L264.865,124.325L264.867,124.325L264.772,124.843L265.001,124.84L265.114,124.793C266.629,124.639 268.222,124.434 269.849,124.193C270.043,124.164 270.236,124.135 270.429,124.106C278.498,122.876 287.233,120.819 291.099,119.82C292.184,119.502 293.263,119.179 294.309,118.855C295.359,118.451 296.031,118.037 296.471,117.546C297.147,116.792 297.335,115.798 297.621,114.295C297.82,113.24 298.069,111.929 298.565,110.286C298.69,109.875 298.904,109.498 299.202,109.165C299.761,108.542 300.644,108.066 301.624,107.862C311.996,105.702 354.011,100.971 363.27,100.525C364.472,100.468 365.531,101.228 365.792,102.334C366.612,105.827 366.169,112.793 365.224,116.687C365.045,117.427 364.749,118.03 364.344,118.482C363.852,119.031 363.196,119.367 362.395,119.481C357.566,120.166 347.99,121.043 337.851,121.972C331.34,122.568 324.668,123.18 318.585,123.796C312.377,124.495 306.003,125.235 299.736,125.991C294.528,126.686 289.897,127.378 284.864,128.131C278.96,129.014 272.42,129.992 263.611,131.178C263.455,132.073 263.301,132.972 263.15,133.876C263.1,134.178 263.029,134.478 262.941,134.768C262.475,136.298 261.476,137.636 260.128,138.536C258.847,139.392 257.372,139.791 255.976,139.661C253.469,139.425 251.784,137.55 251.467,134.643C251.316,133.259 251.201,131.839 251.121,130.384L251.11,129.978L250.911,129.958L250.869,129.955C249.064,129.136 247.104,128.722 243.213,130.201C240.247,131.328 237.705,133.912 236.051,135.758C235.74,136.104 235.461,136.425 235.215,136.708C235.023,136.93 234.851,137.127 234.702,137.293C233.897,138.191 232.718,138.119 232.042,137.53C231.317,136.898 230.977,135.559 232.412,133.867C232.737,133.484 233.034,133.142 233.317,132.826C235.228,130.694 237.728,128.307 241.803,126.755C244.371,125.777 247.407,125.191 250.982,124.988C250.993,120.096 251.355,114.845 252.068,109.247L222.384,116.035L222.384,114.447C228.281,111.057 231.23,106.564 231.23,100.968L231.23,39.266L228.023,39.999C224.853,40.724 222.329,42.265 220.449,44.623C218.569,46.981 216.671,50.761 214.754,55.963L213.317,56.292L213.317,38.711L262.521,27.46L262.521,45.041L261.084,45.37C259.167,41.044 257.25,38.136 255.334,36.646C253.417,35.157 250.911,34.765 247.815,35.473L244.609,36.206L244.609,97.909C244.609,103.142 247.188,106.231 252.345,107.176C253.852,96.448 256.605,84.488 260.596,71.373C265.882,54 272.391,37.872 276.92,27.403C278.185,24.478 279.37,21.82 280.433,19.484L280.311,19.416L280.458,19.43C283.505,12.739 285.543,8.707 285.57,8.654L285.585,8.629C287.964,4.993 291.931,3.719 295.691,5.381ZM197.939,123.048L166.126,77.044L166.126,119.919C166.126,123.245 166.557,125.619 167.42,127.039C168.283,128.459 170.044,129.19 172.704,129.23L172.704,130.818L153.509,137.074L153.509,135.486C158.11,132.021 160.411,127.452 160.411,121.781L160.411,68.472C160.411,65.447 159.853,63.209 158.739,61.757C157.625,60.306 155.989,59.44 153.832,59.16L153.832,57.572L170.44,52.159L196.538,90.498L196.538,56.698C196.538,53.748 195.962,51.535 194.812,50.057C193.662,48.58 191.756,47.783 189.096,47.667L189.096,46.079L208.832,39.647L208.832,41.235C204.374,44.729 202.145,49.274 202.145,54.87L202.145,121.677L197.939,123.048ZM414.942,75.201C414.942,80.721 417.244,84.393 421.847,86.216L421.847,87.804L395.02,89.515L395.02,87.927C399.774,85.734 402.151,81.763 402.151,76.017L402.151,25.656L384.493,72.038L383.361,72.11L362.307,25.928L362.307,78.557C362.307,81.733 362.967,84.167 364.287,85.86C365.608,87.552 367.476,88.776 369.891,89.529L369.891,91.117L349.629,92.409L349.629,90.821C352.195,89.674 354.119,88.077 355.402,86.029C356.685,83.981 357.326,81.596 357.326,78.874L357.326,25.565C357.326,22.691 356.817,20.342 355.798,18.516C354.779,16.691 353.025,15.366 350.534,14.542L350.534,12.954L372.494,11.554L388.568,48.3L403.17,9.598L421.507,8.429L421.507,10.017C419.017,11.084 417.3,12.497 416.357,14.259C415.413,16.02 414.942,18.451 414.942,21.551L414.942,75.201ZM485.935,86.986L459.622,87.319L459.622,85.844C462.798,84.897 464.386,82.722 464.386,79.319C464.386,78.411 464.234,77.128 463.932,75.468C463.327,72.754 461.89,69.842 459.622,66.732C457.354,63.623 454.764,60.953 451.853,58.721C448.942,56.489 446.353,55.237 444.084,54.963L438.527,76.017C438.149,77.534 437.96,78.708 437.96,79.54C437.96,81.204 438.414,82.54 439.321,83.549C440.228,84.559 441.627,85.392 443.517,86.048L443.517,87.523L425.258,87.754L425.258,86.733C428.66,85.405 431.155,81.895 432.743,76.203L451.797,6.887L460.416,6.778L478.109,74.835C478.789,77.549 479.81,79.823 481.171,81.659C482.532,83.494 484.12,84.816 485.935,85.625L485.935,86.986ZM445.332,50.183C448.129,51.131 450.927,52.513 453.725,54.331C456.522,56.148 458.715,58.067 460.303,60.088L451.91,25.26L445.332,50.183ZM536.003,90.534L502.616,31.95L502.616,74.825C502.616,78.151 503.069,80.696 503.974,82.457C504.88,84.218 506.728,85.645 509.52,86.737L509.52,88.325L489.375,86.991L489.375,85.403C494.203,83.757 496.618,80.098 496.618,74.427L496.618,21.118C496.618,18.093 496.033,15.635 494.863,13.742C493.694,11.85 491.978,10.337 489.714,9.204L489.714,7.617L507.143,8.771L534.532,57.429L534.532,23.629C534.532,20.68 533.928,18.239 532.721,16.307C531.514,14.374 529.515,12.824 526.723,11.656L526.723,10.068L547.434,11.44L547.434,13.028C542.756,14.76 540.417,18.423 540.417,24.019L540.417,90.826L536.003,90.534ZM1.813,135.012C1.813,120.142 4.831,106.883 10.867,95.234C16.903,83.585 24.638,74.246 34.071,67.216C43.504,60.187 53.298,55.75 63.45,53.907C70.485,52.629 76.581,52.881 81.738,54.663C86.894,56.444 90.831,59.566 93.549,64.029C96.267,68.492 97.627,74.001 97.627,80.557C97.627,85.113 96.307,89.93 93.669,95.006C91.031,100.082 87.374,104.543 82.697,108.391C78.02,112.238 72.844,114.677 67.168,115.707C62.211,116.608 57.854,116.499 54.097,115.383C50.34,114.267 47.422,112.319 45.343,109.538C43.264,106.758 42.225,103.449 42.225,99.612C42.225,98.013 42.605,96.545 43.364,95.208C44.124,93.871 45.423,92.915 47.262,92.342C46.303,90.358 45.823,88.286 45.823,86.128C45.823,83.01 46.682,80.175 48.401,77.625C50.12,75.074 52.338,73.552 55.056,73.059C57.854,72.551 59.913,72.876 61.232,74.035C62.551,75.195 63.29,76.759 63.45,78.729C63.051,78.882 62.491,79.363 61.772,80.173C61.052,80.983 60.413,82.079 59.853,83.459C59.293,84.84 59.013,86.41 59.013,88.169C59.013,91.686 60.093,94.588 62.251,96.874C64.41,99.161 67.967,99.854 72.924,98.954C78.28,97.981 82.537,95.489 85.695,91.478C88.852,87.466 90.432,82.943 90.432,77.906C90.432,73.749 89.392,70.041 87.314,66.781C85.235,63.521 82.157,61.142 78.08,59.644C74.003,58.145 69.126,57.912 63.45,58.943C56.095,60.279 49.2,63.949 42.765,69.955C36.329,75.96 31.133,84.159 27.176,94.55C23.219,104.942 21.24,117.093 21.24,131.004C21.24,153.148 24.478,169.648 30.953,180.504C37.429,191.36 47.022,195.633 59.733,193.325C65.249,192.323 70.026,190.216 74.063,187.005C78.1,183.793 80.119,179.749 80.119,174.873C80.119,172.155 79.819,170.09 79.219,168.68C78.62,167.27 77.6,166.256 76.161,165.638C76.481,164.541 77.041,163.64 77.84,162.935C78.64,162.231 79.479,161.798 80.358,161.638C82.597,161.232 84.316,161.519 85.515,162.501L85.515,146.312C85.515,144.233 84.915,141.844 83.716,139.144C82.517,136.444 80.758,134.225 78.44,132.487C76.121,130.75 73.364,130.172 70.165,130.752C66.888,131.347 64.03,132.846 61.592,135.248C59.153,137.649 57.294,140.305 56.015,143.215C54.736,146.126 54.097,148.66 54.097,150.819C54.097,151.378 54.237,151.773 54.517,152.002C54.797,152.23 55.176,152.221 55.656,151.975C56.535,151.495 57.255,151.205 57.814,151.103C59.173,150.856 60.313,151.129 61.232,151.921C62.151,152.714 62.611,153.789 62.611,155.148C62.611,156.507 62.051,157.748 60.932,158.871C59.813,159.993 58.534,160.685 57.095,160.946C54.776,161.368 52.938,160.842 51.579,159.37C50.219,157.898 49.54,155.643 49.54,152.606C49.54,150.687 49.82,148.757 50.38,146.817C50.06,147.035 49.5,147.217 48.701,147.362C47.342,147.609 46.163,147.323 45.163,146.505C44.164,145.687 43.664,144.439 43.664,142.76C43.664,138.123 46.442,134.421 51.999,131.653C57.554,128.885 63.73,126.885 70.525,125.651C73.163,125.172 76.801,124.751 81.438,124.388C85.515,124.207 89.352,123.79 92.95,123.137C95.508,122.673 97.527,122.066 99.006,121.318C100.485,120.569 101.744,119.741 102.783,118.833L103.862,119.717C102.743,121.918 101.843,124.5 101.164,127.461C100.485,130.422 100.145,134.262 100.145,138.979L100.145,173.994C100.145,178.151 100.824,182.804 102.183,187.954C103.543,193.103 105.861,197.439 109.138,200.96C112.416,204.482 116.733,205.757 122.089,204.784C124.168,204.407 125.607,203.985 126.406,203.52C128.165,202.562 128.605,201.762 127.725,201.122C126.606,200.366 126.047,199.269 126.047,197.83C126.047,196.471 126.486,195.232 127.365,194.113C128.245,192.994 129.324,192.318 130.603,192.086C131.962,191.839 133.142,192.104 134.141,192.882C135.14,193.66 135.64,194.728 135.64,196.088C135.64,198.646 134.341,201.1 131.742,203.451C129.144,205.801 125.927,207.325 122.089,208.022C119.371,208.515 116.813,208.5 114.415,207.977C113.295,209.939 111.377,211.167 108.659,211.66C106.34,212.081 103.363,211.523 99.725,209.985C96.088,208.447 92.83,205.421 89.952,200.908C87.074,196.393 85.635,190.18 85.635,182.265C83.157,186.313 79.539,189.768 74.782,192.63C70.026,195.493 65.049,197.396 59.853,198.339C49.7,200.183 40.207,199.169 31.373,195.297C22.539,191.425 15.404,184.427 9.968,174.302C4.532,164.177 1.813,151.08 1.813,135.012" style="fill-rule:nonzero;"/>
            </g>
            <g transform="matrix(1,0,0,1,1,-147.419)">
                <path d="M130.456,291.889C133.421,290.673 135.932,288.481 137.99,285.315C140.047,282.148 141.681,278.355 142.891,273.933L144.071,273.449L143.345,286.797C141.348,288.859 139.442,290.54 137.626,291.841C135.811,293.142 133.421,294.401 130.456,295.618C125.615,297.604 121.287,297.875 117.475,296.43C113.662,294.986 110.697,292.081 108.579,287.718C106.461,283.354 105.402,277.902 105.402,271.361C105.402,263.969 106.446,257.114 108.534,250.796C110.622,244.477 113.496,239.128 117.157,234.748C120.819,230.367 124.979,227.221 129.639,225.309C131.938,224.365 134.238,223.716 136.537,223.361C137.869,223.142 138.927,222.871 139.714,222.548C140.38,222.275 140.834,221.959 141.076,221.597C141.318,221.236 141.439,220.794 141.439,220.271C143.194,220.074 144.071,222.233 144.071,226.746C144.071,229.101 143.482,231.714 142.301,234.585C141.121,237.458 139.412,241.053 137.173,245.373C134.873,249.849 133.179,253.439 132.089,256.142C131,258.846 130.456,261.342 130.456,263.632C130.456,264.286 130.486,264.731 130.546,264.968C131.272,263.558 132.21,262.617 133.36,262.146C134.268,261.773 135.07,261.804 135.766,262.238C136.462,262.672 136.809,263.347 136.809,264.263C136.809,265.832 136.446,267.142 135.72,268.192C134.994,269.243 134.026,270.016 132.816,270.513C131.121,271.208 129.85,270.846 129.003,269.428C128.156,268.009 127.732,266.155 127.732,263.866C127.732,262.296 127.914,260.946 128.277,259.816C127.49,259.812 126.855,259.664 126.371,259.372C125.887,259.08 125.645,258.312 125.645,257.07C125.645,256.023 126.144,254.592 127.142,252.776C128.141,250.96 129.639,248.497 131.636,245.389C133.693,242.19 135.236,239.643 136.265,237.749C137.294,235.855 137.808,234.352 137.808,233.24C137.808,231.671 137.354,230.5 136.446,229.727C135.539,228.955 134.434,228.541 133.133,228.486C131.832,228.432 130.667,228.615 129.639,229.038C127.278,230.006 125.206,232.164 123.421,235.513C121.635,238.862 120.243,243.097 119.245,248.216C118.246,253.335 117.748,258.871 117.748,264.823C117.748,271.234 118.322,276.656 119.472,281.09C120.622,285.524 122.18,288.662 124.147,290.504C126.113,292.346 128.217,292.808 130.456,291.889ZM147.777,287.716L147.777,286.343C151.82,283.197 153.842,279.237 153.842,274.462L153.842,228.348C153.842,223.638 151.82,220.992 147.777,220.408L147.777,219.035L170.546,211.638L170.546,213.012C168.43,214.549 166.984,216.246 166.207,218.1C165.429,219.956 165.04,222.159 165.04,224.71L165.04,277.398L173.812,274.549C175.74,273.922 177.358,272.497 178.664,270.275C179.97,268.051 181.37,264.538 182.863,259.736L184.076,259.342L184.076,275.924L147.777,287.716ZM237.854,262.439L215.713,267.724L215.713,266.448C218.385,265.026 219.721,262.843 219.721,259.899C219.721,259.114 219.594,258.033 219.339,256.654C218.83,254.421 217.621,252.175 215.713,249.916C213.804,247.657 211.625,245.838 209.176,244.461C206.726,243.083 204.547,242.491 202.638,242.685L197.962,261.953C197.644,263.337 197.485,264.389 197.485,265.108C197.485,266.548 197.867,267.617 198.63,268.318C199.393,269.019 200.57,269.474 202.161,269.683L202.161,270.959L186.796,274.626L186.796,273.743C189.659,271.948 191.759,268.437 193.095,263.213L209.128,199.633L216.381,197.902L231.269,253.414C231.841,255.632 232.7,257.406 233.846,258.735C234.991,260.065 236.327,260.907 237.854,261.262L237.854,262.439ZM203.688,238.314C206.042,238.602 208.396,239.267 210.75,240.307C213.104,241.348 214.949,242.592 216.285,244.039L209.223,215.505L203.688,238.314ZM256.743,192.768C255.076,193.103 253.681,194.053 252.559,195.619C251.437,197.186 250.875,199.048 250.875,201.207C250.875,204.085 251.725,206.743 253.425,209.182C255.124,211.62 257.609,214.048 260.88,216.466C269.473,222.982 273.77,230.131 273.77,237.916C273.77,241.775 272.824,245.301 270.932,248.493C269.04,251.686 266.619,254.281 263.669,256.28C260.719,258.279 257.609,259.607 254.339,260.264C251.517,260.831 248.823,261.077 246.258,261.004C243.693,260.93 241.737,260.538 240.39,259.828L240.39,246.091L241.737,245.723C242.506,249.493 244.045,252.422 246.354,254.509C248.663,256.596 251.324,257.337 254.339,256.732C256.198,256.358 258.01,255.242 259.773,253.384C261.537,251.525 262.419,248.797 262.419,245.199C262.419,242.125 261.409,239.057 259.388,235.996C257.369,232.935 254.627,229.855 251.164,226.757C243.597,219.97 239.813,213.993 239.813,208.825C239.813,203.396 241.384,199.009 244.527,195.663C247.669,192.317 251.709,190.148 256.647,189.157C259.404,188.603 261.938,188.372 264.246,188.464C266.555,188.557 268.255,188.951 269.345,189.648L269.345,201.716L268.383,201.909C266.459,198.567 264.583,196.099 262.756,194.503C260.928,192.908 258.924,192.33 256.743,192.768ZM294.753,186.302C293.07,186.546 291.662,187.42 290.529,188.925C289.397,190.43 288.83,192.261 288.83,194.42C288.83,197.298 289.688,200.003 291.403,202.534C293.119,205.066 295.628,207.63 298.929,210.227C307.604,217.213 311.941,224.598 311.941,232.382C311.941,236.241 310.986,239.716 309.076,242.805C307.167,245.894 304.723,248.357 301.745,250.194C298.767,252.031 295.628,253.189 292.326,253.667C289.477,254.079 286.758,254.178 284.169,253.964C281.579,253.75 279.605,253.251 278.246,252.467L278.246,238.73L279.605,238.436C280.382,242.248 281.936,245.261 284.266,247.474C286.597,249.688 289.283,250.575 292.326,250.135C294.203,249.863 296.032,248.846 297.812,247.084C299.592,245.322 300.483,242.642 300.483,239.044C300.483,235.97 299.463,232.847 297.424,229.675C295.385,226.504 292.617,223.274 289.121,219.986C281.483,212.785 277.663,206.6 277.663,201.433C277.663,196.003 279.249,191.702 282.421,188.528C285.593,185.355 289.672,183.407 294.656,182.686C297.44,182.283 299.997,182.191 302.327,182.41C304.658,182.628 306.374,183.116 307.474,183.872L307.474,195.941L306.503,196.081C304.561,192.634 302.667,190.063 300.822,188.367C298.977,186.672 296.954,185.984 294.753,186.302ZM315.821,247.87C320.046,245.559 322.158,242.015 322.158,237.24L322.158,191.126C322.158,186.351 320.046,183.288 315.821,181.936L315.821,180.562L340.291,177.782L340.291,179.156C336.067,181.467 333.954,185.011 333.954,189.786L333.954,235.9C333.954,240.675 336.067,243.738 340.291,245.09L340.291,246.464L315.821,249.244L315.821,247.87ZM385.348,226.906L384.566,240.02C382.415,241.439 380.361,242.507 378.405,243.224C376.449,243.94 373.875,244.43 370.68,244.693C365.465,245.121 360.804,244 356.697,241.328C352.59,238.656 349.395,234.798 347.113,229.752C344.832,224.707 343.691,218.914 343.691,212.373C343.691,204.981 344.816,198.462 347.065,192.815C349.314,187.169 352.41,182.745 356.354,179.543C360.298,176.34 364.78,174.533 369.8,174.121C373.125,173.848 376.14,173.895 378.846,174.261C381.551,174.628 383.49,175.286 384.664,176.236L385.251,190.219L383.979,190.421L382.513,187.303C381.208,184.467 379.4,182.13 377.085,180.293C374.771,178.455 372.343,177.641 369.8,177.849C367.258,178.058 365.025,179.55 363.102,182.324C361.178,185.099 359.679,188.885 358.604,193.683C357.528,198.481 356.99,203.856 356.99,209.808C356.99,216.219 357.61,221.826 358.848,226.63C360.087,231.434 361.765,235.074 363.884,237.549C366.003,240.024 368.268,241.162 370.68,240.964C373.875,240.702 376.58,239.318 378.797,236.814C381.013,234.31 382.773,231.042 384.077,227.01L385.348,226.906Z" style="fill-rule:nonzero;"/>
            </g>
            <g transform="matrix(1,0,0,1,1,-260.656)">
                <path d="M109.218,320.083C111.808,318.319 113.103,316.239 113.103,313.843L113.103,287.419L111.695,287.903C110.303,288.382 109.193,289.175 108.368,290.285C107.542,291.395 106.708,293.114 105.866,295.443L105.235,295.66L105.235,288.132L126.849,280.704L126.849,288.233L126.218,288.45C125.376,286.699 124.534,285.555 123.692,285.019C122.85,284.483 121.749,284.448 120.389,284.915L118.981,285.399L118.981,311.823C118.981,314.219 120.276,315.409 122.866,315.394L122.866,316.074L109.218,320.763L109.218,320.083ZM143.267,308.383C144.303,307.606 145.016,306.755 145.404,305.828C145.793,304.9 145.987,303.806 145.987,302.543L145.987,289.866L137.292,292.853L137.292,305.531C137.292,306.826 137.503,307.79 137.924,308.422C138.345,309.055 139.041,309.415 140.012,309.502L140.012,310.182L128.792,314.037L128.792,313.357C129.828,312.58 130.533,311.731 130.905,310.81C131.277,309.888 131.464,308.796 131.464,307.534L131.464,284.704C131.464,283.377 131.253,282.397 130.833,281.764C130.411,281.132 129.731,280.782 128.792,280.716L128.792,280.037L140.012,276.181L140.012,276.861C139.009,277.595 138.304,278.42 137.899,279.336C137.495,280.252 137.292,281.374 137.292,282.702L137.292,290.862L145.987,287.874L145.987,279.714C145.987,278.386 145.776,277.406 145.355,276.774C144.934,276.141 144.238,275.797 143.267,275.743L143.267,275.063L154.487,271.207L154.487,271.887C153.451,272.664 152.747,273.513 152.374,274.435C152.002,275.356 151.816,276.448 151.816,277.711L151.816,300.54C151.816,301.835 152.018,302.81 152.423,303.464C152.827,304.119 153.516,304.473 154.487,304.528L154.487,305.208L143.267,309.063L143.267,308.383ZM156.43,304.54L156.43,303.86C158.535,302.263 159.587,300.266 159.587,297.87L159.587,275.041C159.587,272.58 158.535,271.306 156.43,271.22L156.43,270.54L174.888,264.197L174.888,270.608L174.305,270.809C173.625,269.65 172.928,268.853 172.216,268.418C171.504,267.983 170.694,267.921 169.787,268.232L165.464,269.718L165.464,281.036L167.019,280.502C168.703,279.923 170.046,278.457 171.051,276.104L171.827,275.837L171.827,284.143L171.051,284.41C170.111,282.726 168.767,282.183 167.019,282.784L165.464,283.318L165.464,299.104L170.613,297.335C171.617,296.99 172.459,296.353 173.139,295.423C173.819,294.493 174.499,293.118 175.179,291.298L175.81,291.081L175.81,297.881L156.43,304.54Z" style="fill-rule:nonzero;"/>
            </g>
            <g transform="matrix(1,0,0,1,1,-210.504)">
                <path d="M217.088,247.979C227.106,245.547 237.201,243.561 247.304,241.685C246.786,241.358 246.269,241.03 245.75,240.7C243.243,239.103 240.774,238.495 238.444,238.377C236.117,238.259 233.918,238.643 231.97,238.984C229.279,239.478 227.158,239.874 226.038,238.693C225.885,238.534 225.733,238.372 225.586,238.21C225.409,238.368 225.232,238.527 225.054,238.682C222.15,241.282 218.252,243.659 214.274,245.649C210.287,247.645 206.212,249.248 202.911,250.148C202.367,250.299 201.828,250.45 201.289,250.598C198.603,251.359 196.041,251.121 194.066,250.146C192.106,249.178 190.731,247.458 190.417,245.183C190.146,243.216 191.508,241.104 193.461,240.484C194.587,240.134 195.634,240.781 195.792,241.93C195.841,242.279 195.722,242.639 195.5,242.917C195.557,242.746 195.575,242.567 195.551,242.39C195.459,241.719 194.847,241.34 194.192,241.545C193.387,241.792 192.822,242.657 192.934,243.471C193.078,244.511 194.036,245.103 195.062,244.791C196.44,244.375 197.4,242.904 197.207,241.504C196.938,239.56 195.169,238.451 193.263,239.051C191.9,239.484 190.735,240.449 189.966,241.645C189.2,242.836 188.817,244.263 189.006,245.636C189.184,246.924 189.647,248.06 190.331,249.018C191.017,249.979 191.927,250.767 193.001,251.346C192.677,251.747 192.5,252.262 192.569,252.765C192.586,252.886 192.62,252.997 192.659,253.103C165.814,261.173 140.253,270.203 113.845,279.278C108.563,281.093 104.875,285.901 104.875,290.97C104.875,294.632 107.684,296.598 111.273,295.445C113.994,294.579 116.244,291.639 116.306,288.903C116.327,287.892 115.958,287.068 115.266,286.58C114.572,286.095 113.638,286.003 112.636,286.326C111.859,286.575 111.121,287.116 110.559,287.846C109.997,288.576 109.678,289.41 109.661,290.193C109.647,290.813 109.873,291.318 110.298,291.616C110.724,291.915 111.296,291.97 111.909,291.773C112.927,291.45 113.79,290.333 113.814,289.298C113.833,288.441 113.155,287.966 112.303,288.239C111.876,288.379 111.478,288.716 111.232,289.121C111.308,288.924 111.418,288.728 111.558,288.546C111.84,288.18 112.204,287.913 112.604,287.782C113.22,287.583 113.795,287.638 114.22,287.94C114.647,288.239 114.874,288.746 114.86,289.367C114.84,290.303 114.458,291.3 113.787,292.173C113.115,293.046 112.232,293.688 111.304,293.989C108.509,294.887 106.32,293.343 106.32,290.473C106.32,286.188 109.345,282.27 113.845,280.724C148.194,268.92 181.293,256.666 217.088,247.979" style="fill:rgb(203,147,98);fill-rule:nonzero;"/>
            </g>
            <g transform="matrix(-1,0,0,1,515.492,148.172)">
                <path d="M257.246,84.628C255.348,84.628 253.808,86.167 253.808,88.066C253.808,89.965 255.348,91.504 257.246,91.504C259.145,91.504 260.684,89.965 260.684,88.066C260.684,86.167 259.145,84.628 257.246,84.628" style="fill:white;"/>
            </g>
            <g transform="matrix(-0.681869,0.731474,0.731474,0.681869,369.418,-11.9742)">
                <path d="M257.335,85.355C258.807,85.354 260.005,86.553 260.005,88.024C260.005,89.495 258.807,90.692 257.335,90.693C255.863,90.692 254.667,89.495 254.666,88.024C254.666,86.552 255.863,85.354 257.335,85.355" style="fill-rule:nonzero;"/>
            </g>
            <g transform="matrix(1,0,0,1,1,149.273)">
                <path d="M255.825,88.629C254.972,87.833 254.891,86.518 255.609,85.623C256.444,85.879 258.066,88.099 258.585,88.836C257.748,89.409 256.597,89.349 255.825,88.629" style="fill:white;fill-rule:nonzero;"/>
            </g>
            <g transform="matrix(1,0,0,1,1,147.138)">
                <path d="M259.139,90.427C258.962,90.391 258.8,90.319 258.8,90.319C258.8,90.319 256.433,88.07 256.081,87.784C255.942,87.671 255.939,87.524 255.986,87.388C256.828,86.739 258.044,86.773 258.847,87.521C259.669,88.287 259.774,89.536 259.139,90.427" style="fill:white;fill-rule:nonzero;"/>
            </g>
            <g transform="matrix(1,0,0,1,1,148.187)">
                <path d="M255.364,90.487C255.705,90.754 256.088,90.931 256.465,91.029C256.844,91.129 257.218,91.142 257.554,91.106C257.889,91.069 258.19,90.982 258.437,90.866C258.468,90.853 258.499,90.84 258.528,90.826C258.558,90.812 258.587,90.795 258.614,90.781C258.669,90.75 258.723,90.72 258.775,90.692C258.874,90.629 258.961,90.565 259.041,90.51C259.114,90.448 259.18,90.391 259.238,90.343C259.294,90.294 259.335,90.242 259.371,90.206C259.442,90.131 259.479,90.091 259.479,90.091C259.479,90.091 259.437,90.127 259.36,90.196C259.32,90.229 259.277,90.275 259.216,90.318C259.156,90.361 259.088,90.411 259.01,90.467C258.927,90.515 258.838,90.572 258.738,90.626C258.685,90.65 258.632,90.674 258.576,90.701C258.548,90.714 258.52,90.728 258.49,90.74C258.46,90.751 258.43,90.761 258.398,90.772C258.154,90.868 257.859,90.927 257.54,90.948C257.22,90.968 256.871,90.933 256.522,90.829C256.171,90.727 255.826,90.545 255.523,90.298C255.211,90.045 254.951,89.727 254.766,89.356C254.579,88.989 254.471,88.574 254.455,88.156C254.447,87.737 254.521,87.317 254.683,86.939C254.704,86.891 254.72,86.841 254.745,86.797L254.818,86.662C254.863,86.568 254.924,86.492 254.977,86.408L255.018,86.346L255.067,86.285C255.1,86.244 255.134,86.204 255.167,86.163L255.213,86.108L255.266,86.056C255.301,86.021 255.336,85.986 255.371,85.951C255.659,85.681 255.991,85.48 256.331,85.35C256.67,85.222 257.017,85.167 257.337,85.161C257.657,85.158 257.952,85.199 258.205,85.275C258.236,85.283 258.267,85.291 258.298,85.3C258.328,85.31 258.356,85.322 258.385,85.333C258.444,85.355 258.499,85.375 258.553,85.396C258.656,85.442 258.749,85.492 258.835,85.533C258.916,85.582 258.988,85.628 259.051,85.667C259.115,85.705 259.163,85.748 259.204,85.778C259.287,85.841 259.331,85.873 259.331,85.873C259.331,85.873 259.291,85.836 259.215,85.765C259.176,85.732 259.134,85.684 259.073,85.639C259.013,85.594 258.944,85.542 258.866,85.484C258.782,85.435 258.691,85.377 258.588,85.32C258.534,85.295 258.479,85.27 258.422,85.243C258.392,85.229 258.363,85.216 258.333,85.202C258.302,85.191 258.27,85.18 258.239,85.169C257.984,85.067 257.677,85.004 257.339,84.991C257.001,84.975 256.628,85.018 256.257,85.144C255.885,85.265 255.516,85.473 255.197,85.761C255.158,85.798 255.119,85.835 255.08,85.872L255.021,85.929L254.964,85.992C254.931,86.032 254.896,86.071 254.861,86.112L254.81,86.172L254.761,86.241C254.697,86.335 254.627,86.426 254.577,86.526L254.496,86.674C254.468,86.723 254.45,86.777 254.427,86.829C254.248,87.244 254.154,87.706 254.172,88.166C254.192,88.626 254.313,89.08 254.523,89.482C254.731,89.881 255.031,90.229 255.364,90.487" style="fill-rule:nonzero;"/>
            </g>
        </g>
    </g>
</svg>
